<svg width="680.6500244140625px" height="117.60000305175781px" xmlns="http://www.w3.org/2000/svg" viewBox="-90.32501220703125 16.199998474121095 680.6500244140625 117.60000305175781" style="background: rgba(0, 0, 0, 0);" preserveAspectRatio="xMidYMid"><defs><filter id="editing-hole" x="-100%" y="-100%" width="300%" height="300%"><feFlood flood-color="#000000" result="black"></feFlood><feMorphology operator="dilate" radius="2" in="SourceGraphic" result="erode"></feMorphology><feGaussianBlur in="erode" stdDeviation="4" result="blur"></feGaussianBlur><feOffset in="blur" dx="2" dy="2" result="offset"></feOffset><feComposite operator="atop" in="offset" in2="black" result="merge"></feComposite><feComposite operator="in" in="merge" in2="SourceGraphic" result="inner-shadow"></feComposite></filter></defs><g filter="url(#editing-hole)"><g transform="translate(5.32499885559082, 96.00499534606934)"><path d="M5.39 0L5.39-42.01L36.01-42.01L36.01-36.01L11.40-36.01L11.40-23.99L32.40-23.99L32.40-17.99L11.40-17.99L11.40 0L5.39 0ZM77.58-31.79L77.58-27.01L77.58-27.01Q77.58-18.22 70.08-16.99L70.08-16.99L77.99 0L71.34 0L63.54-16.79L50.39-16.79L50.39 0L44.38 0L44.38-42.01L67.38-42.01L67.38-42.01Q77.58-42.01 77.58-31.79L77.58-31.79ZM50.39-36.01L50.39-22.79L67.06-22.79L67.06-22.79Q69.46-22.79 70.52-23.85L70.52-23.85L70.52-23.85Q71.57-24.90 71.57-27.30L71.57-27.30L71.57-31.49L71.57-31.49Q71.57-33.90 70.52-34.95L70.52-34.95L70.52-34.95Q69.46-36.01 67.06-36.01L67.06-36.01L50.39-36.01ZM87.60 0L87.60-42.01L118.21-42.01L118.21-36.01L93.60-36.01L93.60-23.99L114.61-23.99L114.61-17.99L93.60-17.99L93.60-6.01L118.21-6.01L118.21 0L87.60 0ZM133.21-32.58L133.21 0L127.21 0L127.21-42.01L133.21-42.01L158.47-9.43L158.47-42.01L164.47-42.01L164.47 0L158.47 0L133.21-32.58ZM174.32-36.01L174.32-42.01L207.30-42.01L207.30-40.20L183.49-6.01L207.30-6.01L207.30 0L173.47 0L173.47-1.79L197.29-36.01L174.32-36.01ZM212.11-42.01L219.08-42.01L231.30-22.38L243.54-42.01L250.52-42.01L234.32-16.67L234.32 0L228.31 0L228.31-16.67L212.11-42.01ZM263.12-6.01L278.47-6.01L278.47-6.01Q282.66-6.01 284.91-8.26L284.91-8.26L284.91-8.26Q287.17-10.52 287.17-14.71L287.17-14.71L287.17-27.30L287.17-27.30Q287.17-29.36 286.58-30.97L286.58-30.97L286.58-30.97Q286.00-32.58 284.87-33.71L284.87-33.71L284.87-33.71Q283.74-34.83 282.13-35.42L282.13-35.42L282.13-35.42Q280.52-36.01 278.47-36.01L278.47-36.01L263.12-36.01L263.12-6.01ZM278.47 0L257.11 0L257.11-42.01L278.47-42.01L278.47-42.01Q281.84-42.01 284.55-40.97L284.55-40.97L284.55-40.97Q287.26-39.93 289.17-38.01L289.17-38.01L289.17-38.01Q291.09-36.09 292.13-33.37L292.13-33.37L292.13-33.37Q293.17-30.64 293.17-27.30L293.17-27.30L293.17-14.71L293.17-14.71Q293.17-11.37 292.13-8.64L292.13-8.64L292.13-8.64Q291.09-5.92 289.17-4.00L289.17-4.00L289.17-4.00Q287.26-2.08 284.55-1.04L284.55-1.04L284.55-1.04Q281.84 0 278.47 0L278.47 0ZM302.78-42.01L308.79-42.01L308.79 0L302.78 0L302.78-42.01ZM319.57-6.01L319.57-36.01L319.57-36.01Q319.57-37.24 320.04-38.33L320.04-38.33L320.04-38.33Q320.51-39.43 321.33-40.24L321.33-40.24L321.33-40.24Q322.15-41.04 323.25-41.53L323.25-41.53L323.25-41.53Q324.35-42.01 325.58-42.01L325.58-42.01L348.37-42.01L348.37-42.01Q349.60-42.01 350.70-41.53L350.70-41.53L350.70-41.53Q351.80-41.04 352.62-40.24L352.62-40.24L352.62-40.24Q353.44-39.43 353.91-38.33L353.91-38.33L353.91-38.33Q354.38-37.24 354.38-36.01L354.38-36.01L354.38-30.59L348.37-30.59L348.37-36.01L325.58-36.01L325.58-6.01L348.37-6.01L348.37-16.20L336.97-16.20L336.97-22.21L354.38-22.21L354.38-6.01L354.38-6.01Q354.38-4.78 353.91-3.68L353.91-3.68L353.91-3.68Q353.44-2.58 352.62-1.76L352.62-1.76L352.62-1.76Q351.80-0.94 350.70-0.47L350.70-0.47L350.70-0.47Q349.60 0 348.37 0L348.37 0L325.58 0L325.58 0Q324.35 0 323.25-0.47L323.25-0.47L323.25-0.47Q322.15-0.94 321.33-1.76L321.33-1.76L321.33-1.76Q320.51-2.58 320.04-3.68L320.04-3.68L320.04-3.68Q319.57-4.78 319.57-6.01L319.57-6.01ZM365.16-42.01L371.16-42.01L371.16 0L365.16 0L365.16-42.01ZM378.34-36.01L378.34-42.01L411.94-42.01L411.94-36.01L398.14-36.01L398.14 0L392.14 0L392.14-36.01L378.34-36.01ZM426.94-42.01L432.95-42.01L449.15 0L443.14 0L439.42-9.67L420.47-9.67L416.75 0L410.74 0L426.94-42.01ZM429.96-34.19L422.75-15.67L437.11-15.67L429.96-34.19ZM456.36-42.01L462.36-42.01L462.36-6.01L483.96-6.01L483.96 0L456.36 0L456.36-42.01Z" fill="#2621d2"></path></g></g><style>text {
  font-size: 64px;
  font-family: Arial Black;
  dominant-baseline: central;
  text-anchor: middle;
}</style></svg>